<svg data-v-fde0c5aa="" xmlns="http://www.w3.org/2000/svg" viewBox="0 0 300 300" class="icon"><!----><defs data-v-fde0c5aa=""><!----></defs><rect data-v-fde0c5aa="" fill="#00242B" x="0" y="0" width="300px" height="300px" class="logo-background-square"></rect><!----><defs data-v-fde0c5aa=""><!----></defs><g data-v-fde0c5aa="" id="e85e82bb-e22c-4498-b011-3ae1c079dc65" fill="#7DE38D" stroke="none" transform="matrix(2.4444444444444446,0,0,2.4444444444444446,27.777777777777764,27.777777777777764)"><path d="M69.527 54.309a4.086 4.086 0 0 1-1.2 2.891 4.184 4.184 0 0 1-2.891 1.2 4.086 4.086 0 0 1-2.891-1.2 4.086 4.086 0 0 1 0-5.782c.764-.764 1.8-1.2 2.891-1.2 1.036 0 2.127.436 2.891 1.2.764.764 1.2 1.8 1.2 2.891zM34.564 50.218c1.091 0 2.127.436 2.891 1.2a4.086 4.086 0 0 1 0 5.782 4.086 4.086 0 0 1-5.782 0 4.086 4.086 0 0 1 0-5.782c.764-.764 1.8-1.2 2.891-1.2z"></path><path d="M85.345 39.745c-.927-3.218-2.236-6.218-4.036-8.945h-3.491c-1.527-.055-3.109.873-3.873 2.182l-3.764 6.764h15.164zM60.8 49.782c-1.091 1.2-1.8 2.782-1.8 4.527 0 3.545 2.782 6.382 6.382 6.382h19.855A36.49 36.49 0 0 0 86.819 50c0-.709 0-1.418-.109-2.073H65.381c-1.745 0-3.327.709-4.527 1.8l-.054.055zM5 50C5 25.127 25.127 5 50 5c15.327 0 28.855 7.691 36.982 19.418C92.055 31.673 95 40.455 95 50c0 24.873-20.182 45-45 45C25.127 95 5 74.873 5 50zm24.764-10.255l-3.709-6.655-.055-.108c-.873-1.364-2.345-2.182-3.873-2.182h-3.491a32.26 32.26 0 0 0-3.982 8.945h15.11zm4.8 20.946c1.8 0 3.436-.709 4.527-1.855 1.2-1.2 1.909-2.727 1.909-4.527 0-3.545-2.891-6.382-6.436-6.382H13.291c-.109.655-.109 1.364-.109 2.073 0 3.709.545 7.309 1.582 10.691h19.8zm4.09 12.6c0 2.291-1.8 4.091-4.091 4.091a4.086 4.086 0 0 1-4.091-4.091v-4.418H18.417c1.527 2.618 3.436 5.018 5.564 7.145 6.655 6.709 15.818 10.8 26.018 10.8 10.145 0 19.364-4.091 26.018-10.8a35.157 35.157 0 0 0 5.509-7.145H69.471v4.418c0 2.291-1.8 4.091-4.091 4.091a4.086 4.086 0 0 1-4.091-4.091v-5.018c-2.4-.709-4.527-1.964-6.218-3.655a14.552 14.552 0 0 1-4.255-10.309c0-3.982 1.636-7.636 4.2-10.309l.055-.055c.327-.327.655-.6.982-.927l-.709-.709a4.181 4.181 0 0 1 0-5.836c1.636-1.582 4.2-1.582 5.782 0l.982.982L66.8 29c1.8-3.055 4.745-5.236 8.127-6.055A36.64 36.64 0 0 0 50 13.182c-9.655 0-18.382 3.709-24.927 9.818 3.382.764 6.273 2.945 8.073 5.945V29l4.691 8.455.982-.982c1.582-1.582 4.2-1.582 5.782 0a4.181 4.181 0 0 1 0 5.836l-.764.764c.382.273.709.6 1.036.927a14.465 14.465 0 0 1 4.309 10.309c0 4.036-1.691 7.691-4.309 10.309-1.691 1.691-3.818 3-6.218 3.655v5.018z"></path></g><!----></svg>